<svg
  width="228"
  height="102"
  viewBox="0 0 228 102"
  fill="none"
  xmlns="http://www.w3.org/2000/svg"
>
<path
    fill-rule="evenodd"
    clip-rule="evenodd"
    d="M0 31.7547V47.6364H46.4563C51.8561 47.6364 58.7549 42.6434 58.7549 34.3836C58.7549 31.0616 60.0254 28.8947 56.1209 24.5005L50.1788 17.4599C46.7739 14.2835 50.5855 14.2835 53.4455 14.2835H73.0597V47.6364H88.6151V14.2835H109.58V0H41.6918C33.432 0 29.3931 7.93082 29.6204 12.0601C29.8489 16.1893 30.6084 21.3845 37.4721 27.6254C43.7331 33.3165 34.3723 31.7547 33.432 31.7547H0V31.7547ZM143.976 0H118.882L104.814 47.6376H120.47L123.01 40.9673H139.527L141.979 47.6376H157.315L143.976 0V0ZM126.505 29.5312L131.905 12.0601L136.988 29.5312H126.505V29.5312ZM206.869 31.7547C200.834 31.7547 200.834 29.5312 200.834 29.5312C206.006 29.5312 210.591 21.9971 210.591 14.2835C210.591 6.56989 203.058 0 197.02 0H163.259V47.6376H180.414V31.7559C180.414 31.7559 187.718 40.3321 191.53 43.826C195.343 47.32 195.659 47.6376 200.833 47.6376H227.762V31.7559C227.764 31.7547 212.904 31.7547 206.869 31.7547V31.7547ZM191.304 20.6375H180.417V12.0601H191.304C196.296 12.0601 197.159 20.6375 191.304 20.6375ZM0 53.6714H17.5503L21.9971 69.5557L26.1264 53.6714H44.5505L49.315 69.5557L54.0808 53.6714H69.3272L55.35 101.32H41.3741L35.2499 78.7658L28.3498 101.32H14.0563L0 53.6714ZM105.346 53.9464H80.2511L66.1848 101.583H81.8393L84.3803 94.9137H100.899L103.351 101.583H118.687L105.346 53.9464ZM87.8756 83.4764L93.2754 66.0052L98.3575 83.4764H87.8756ZM207.186 67.9675C204.33 67.9675 201.215 68.3015 204.621 71.4766L210.564 78.5185C214.467 82.9126 214.405 84.7444 214.405 88.0689C214.405 96.3274 206.234 101.32 200.834 101.32L163.301 101.573C158.129 101.573 157.813 101.256 154 97.7624C150.19 94.2684 142.883 85.691 142.883 85.691V101.573H125.731V53.9364H159.492C165.527 53.9364 173.062 60.5075 173.062 68.2199C173.062 75.9347 168.477 83.4676 163.303 83.4676C163.303 83.4676 165.578 85.755 169.39 85.755C173.203 85.755 187.879 85.7701 187.879 85.7701C188.818 85.7701 198.178 87.3319 191.918 81.6409C185.054 75.3999 184.295 70.2073 184.066 66.078C183.838 61.9488 187.408 53.6727 195.664 53.6727H227.767V67.9688H207.186V67.9675V67.9675ZM153.772 74.5725H142.882V65.9952H153.772C158.765 65.9952 159.627 74.5725 153.772 74.5725Z"
    fill="black"
  />
</svg>
